<svg xmlns="http://www.w3.org/2000/svg" viewBox="0 0 160 160" fill="none">
  <defs>
    <linearGradient id="g" x1="30" x2="130" y1="24" y2="136" gradientUnits="userSpaceOnUse">
      <stop offset="0%" stop-color="#f6de9b"/>
      <stop offset="45%" stop-color="#ffa8c4"/>
      <stop offset="100%" stop-color="#8ef2d2"/>
    </linearGradient>
  </defs>
  <path d="M80 132V78" stroke="url(#g)" stroke-width="6" stroke-linecap="round"/>
  <path d="M80 80c0-18 14-32 32-32 0 18-14 32-32 32Z" stroke="url(#g)" stroke-width="6" stroke-linejoin="round"/>
  <path d="M80 92c0-18-14-32-32-32 0 18 14 32 32 32Z" stroke="url(#g)" stroke-opacity="0.8" stroke-width="6" stroke-linejoin="round"/>
  <path d="M80 112c0-14 10-24 24-24 0 14-10 24-24 24Z" stroke="url(#g)" stroke-opacity="0.68" stroke-width="6" stroke-linejoin="round"/>
  <path d="M80 144c-14 0-24-9-24-22h48c0 13-10 22-24 22Z" fill="url(#g)" fill-opacity="0.18" stroke="url(#g)" stroke-width="4"/>
  <circle cx="80" cy="38" r="10" fill="url(#g)"/>
</svg>
