<svg xmlns="http://www.w3.org/2000/svg" viewBox="0 0 256 256" fill="none">
  <defs>
    <radialGradient id="bg" cx="35%" cy="35%" r="75%">
      <stop offset="0%" stop-color="#1f2752"/>
      <stop offset="55%" stop-color="#120f25"/>
      <stop offset="100%" stop-color="#090b14"/>
    </radialGradient>
    <linearGradient id="line" x1="30" x2="226" y1="26" y2="230" gradientUnits="userSpaceOnUse">
      <stop offset="0%" stop-color="#ffe7a0"/>
      <stop offset="45%" stop-color="#ffc176"/>
      <stop offset="100%" stop-color="#f09ddd"/>
    </linearGradient>
  </defs>
  <rect x="12" y="12" width="232" height="232" rx="58" fill="url(#bg)" stroke="url(#line)" stroke-width="6"/>
  <circle cx="128" cy="122" r="72" stroke="url(#line)" stroke-opacity="0.46" stroke-width="3"/>
  <circle cx="128" cy="122" r="50" stroke="url(#line)" stroke-width="3"/>
  <path d="M128 46 177 74 177 130 128 158 79 130 79 74Z" stroke="url(#line)" stroke-width="3"/>
  <path d="M128 74 152 88 152 116 128 130 104 116 104 88Z" stroke="url(#line)" stroke-width="3"/>
  <path d="M128 164c17 0 31 13 31 30h-62c0-17 14-30 31-30Z" fill="url(#line)" fill-opacity="0.18" stroke="url(#line)" stroke-width="3"/>
  <path d="M128 88c8 10 14 20 14 29 0 10-6 18-14 18s-14-8-14-18c0-9 6-19 14-29Z" fill="url(#line)" fill-opacity="0.22" stroke="url(#line)" stroke-width="3"/>
  <path d="M82 54c16-18 31-26 46-26s30 8 46 26" stroke="url(#line)" stroke-width="5" stroke-linecap="round"/>
  <circle cx="128" cy="122" r="8" fill="url(#line)"/>
</svg>
